<?xml version="1.0" encoding="utf-8"?>
<!-- Generator: Adobe Illustrator 24.2.1, SVG Export Plug-In . SVG Version: 6.00 Build 0)  -->
<svg version="1.1" id="图层_1" xmlns="http://www.w3.org/2000/svg" xmlns:xlink="http://www.w3.org/1999/xlink" x="0px" y="0px"
	 width="19px" height="19px" viewBox="0 0 19 19" style="enable-background:new 0 0 19 19;" xml:space="preserve">
<style type="text/css">
	.st0{opacity:0.75;fill:#FFFFFF;}
</style>
<rect x="12" y="8" class="st0" width="6" height="1"/>
<rect y="9" class="st0" width="3" height="1"/>
<rect x="8" y="17" transform="matrix(6.123234e-17 -1 1 6.123234e-17 -8 27)" class="st0" width="3" height="1"/>
<rect x="9" y="0" class="st0" width="1" height="9"/>
<rect x="5" y="2" class="st0" width="1" height="1"/>
<rect x="2" y="5" class="st0" width="1" height="1"/>
<rect x="5" y="16" class="st0" width="1" height="1"/>
<rect x="2" y="13" class="st0" width="1" height="1"/>
<rect x="16" y="13" transform="matrix(-1.346052e-10 -1 1 -1.346052e-10 3 30)" class="st0" width="1" height="1"/>
<rect x="13" y="16" transform="matrix(-1.346052e-10 -1 1 -1.346052e-10 -3 30)" class="st0" width="1" height="1"/>
</svg>
